<svg width="44" height="35" viewBox="0 0 44 35" fill="none" xmlns="http://www.w3.org/2000/svg">
<path d="M15.2221 17.3969C17.5291 17.3969 19.7416 16.4804 21.3729 14.8492C23.0041 13.2179 23.9206 11.0054 23.9206 8.69844C23.9206 6.39147 23.0041 4.17899 21.3729 2.54771C19.7416 0.91644 17.5291 0 15.2221 0C12.9152 0 10.7027 0.91644 9.07142 2.54771C7.44015 4.17899 6.52371 6.39147 6.52371 8.69844C6.52371 11.0054 7.44015 13.2179 9.07142 14.8492C10.7027 16.4804 12.9152 17.3969 15.2221 17.3969ZM12.1165 20.6588C5.42281 20.6588 -0.00012207 26.0817 -0.00012207 32.7754C-0.00012207 33.8899 0.9037 34.7938 2.01819 34.7938H28.4261C28.5484 34.7938 28.664 34.7802 28.7863 34.7598C23.6012 31.0154 22.0042 25.1779 21.78 21.1549C20.6859 20.8287 19.5306 20.6588 18.3346 20.6588H12.1165ZM33.1015 15.3378L24.9467 18.5997C24.3283 18.8512 23.9206 19.4492 23.9206 20.1151C23.9206 24.4168 25.6807 31.5862 33.0811 34.6714C33.4821 34.8413 33.9374 34.8413 34.3383 34.6714C41.732 31.5862 43.4921 24.4168 43.4921 20.1151C43.4921 19.4492 43.0843 18.8512 42.4659 18.5997L34.3111 15.3378C33.9238 15.1815 33.4889 15.1815 33.1015 15.3378ZM40.1894 21.2024C39.9244 24.6478 38.341 29.133 33.7063 31.3755V18.6065L40.1894 21.2024Z" fill="#E52207"/>
</svg>
