<svg width="35" height="35" viewBox="0 0 35 35" fill="none" xmlns="http://www.w3.org/2000/svg">
<path d="M17.3969 0C22.0108 0 26.4358 1.83288 29.6983 5.09543C32.9609 8.35798 34.7938 12.7829 34.7938 17.3969C34.7938 22.0108 32.9609 26.4358 29.6983 29.6983C26.4358 32.9609 22.0108 34.7938 17.3969 34.7938C12.7829 34.7938 8.35798 32.9609 5.09543 29.6983C1.83288 26.4358 0 22.0108 0 17.3969C0 12.7829 1.83288 8.35798 5.09543 5.09543C8.35798 1.83288 12.7829 0 17.3969 0ZM15.7659 8.15479V17.3969C15.7659 17.9405 16.0377 18.4502 16.4931 18.756L23.0169 23.1052C23.7644 23.6081 24.777 23.4042 25.2798 22.6499C25.7827 21.8956 25.5788 20.8898 24.8245 20.387L19.0278 16.527V8.15479C19.0278 7.25096 18.3007 6.52383 17.3969 6.52383C16.4931 6.52383 15.7659 7.25096 15.7659 8.15479Z" fill="#E52207"/>
</svg>
