<svg width="20" height="21" viewBox="0 0 20 21" fill="none" xmlns="http://www.w3.org/2000/svg">
<path d="M10 4.42105C9.38889 4.42105 8.86574 4.20461 8.43056 3.77171C7.99537 3.33882 7.77778 2.81842 7.77778 2.21053C7.77778 1.60263 7.99537 1.08224 8.43056 0.649342C8.86574 0.216447 9.38889 0 10 0C10.6111 0 11.1343 0.216447 11.5694 0.649342C12.0046 1.08224 12.2222 1.60263 12.2222 2.21053C12.2222 2.81842 12.0046 3.33882 11.5694 3.77171C11.1343 4.20461 10.6111 4.42105 10 4.42105ZM6.66667 21V7.73684C5.40741 7.62632 4.23148 7.47895 3.13889 7.29474C2.0463 7.11053 1 6.88947 0 6.63158L0.555556 4.42105C1.94444 4.78947 3.41667 5.06579 4.97222 5.25C6.52778 5.43421 8.2037 5.52632 10 5.52632C11.7963 5.52632 13.4722 5.43421 15.0278 5.25C16.5833 5.06579 18.0556 4.78947 19.4444 4.42105L20 6.63158C19 6.88947 17.9537 7.11053 16.8611 7.29474C15.7685 7.47895 14.5926 7.62632 13.3333 7.73684V21H11.1111V14.3684H8.88889V21H6.66667ZM18.8889 12.1579C18.5741 12.1579 18.3102 12.052 18.0972 11.8401C17.8843 11.6283 17.7778 11.3658 17.7778 11.0526C17.7778 10.7395 17.8843 10.477 18.0972 10.2651C18.3102 10.0533 18.5741 9.94737 18.8889 9.94737C19.2037 9.94737 19.4676 10.0533 19.6806 10.2651C19.8935 10.477 20 10.7395 20 11.0526C20 11.3658 19.8935 11.6283 19.6806 11.8401C19.4676 12.052 19.2037 12.1579 18.8889 12.1579ZM18.8889 16.5789C18.5741 16.5789 18.3102 16.473 18.0972 16.2612C17.8843 16.0493 17.7778 15.7868 17.7778 15.4737C17.7778 15.1605 17.8843 14.898 18.0972 14.6862C18.3102 14.4743 18.5741 14.3684 18.8889 14.3684C19.2037 14.3684 19.4676 14.4743 19.6806 14.6862C19.8935 14.898 20 15.1605 20 15.4737C20 15.7868 19.8935 16.0493 19.6806 16.2612C19.4676 16.473 19.2037 16.5789 18.8889 16.5789ZM18.8889 21C18.5741 21 18.3102 20.8941 18.0972 20.6822C17.8843 20.4704 17.7778 20.2079 17.7778 19.8947C17.7778 19.5816 17.8843 19.3191 18.0972 19.1072C18.3102 18.8954 18.5741 18.7895 18.8889 18.7895C19.2037 18.7895 19.4676 18.8954 19.6806 19.1072C19.8935 19.3191 20 19.5816 20 19.8947C20 20.2079 19.8935 20.4704 19.6806 20.6822C19.4676 20.8941 19.2037 21 18.8889 21Z" fill="#333333"/>
</svg>
