<svg width="44" height="35" viewBox="0 0 44 35" fill="none" xmlns="http://www.w3.org/2000/svg">
<path d="M2.63661 0.346472C1.92986 -0.210772 0.903716 -0.0816541 0.346472 0.625094C-0.210772 1.33184 -0.0816541 2.35799 0.625094 2.91523L40.8554 34.4471C41.5621 35.0043 42.5883 34.8752 43.1455 34.1684C43.7028 33.4617 43.5736 32.4356 42.8669 31.8783L35.7179 26.2787C38.4089 23.5197 40.2302 20.4276 41.1476 18.2326C41.3718 17.6958 41.3718 17.0978 41.1476 16.5609C40.135 14.1349 38.008 10.6011 34.8276 7.6518C31.6337 4.6753 27.2369 2.1745 21.746 2.1745C17.1114 2.1745 13.2514 3.96176 10.2409 6.30626L2.63661 0.346472ZM15.161 10.1594C16.8939 8.57601 19.2112 7.61103 21.746 7.61103C27.1485 7.61103 31.5317 11.9942 31.5317 17.3968C31.5317 19.0889 31.1036 20.6791 30.3493 22.0654L27.7262 20.0131C28.297 18.7015 28.4465 17.1997 28.0524 15.7114C27.298 12.8913 24.804 10.9953 22.0314 10.8797C21.6373 10.8661 21.4062 11.2943 21.5285 11.6748C21.6712 12.1098 21.7528 12.5719 21.7528 13.0543C21.7528 13.7475 21.5897 14.3999 21.3043 14.9775L15.1678 10.1662L15.161 10.1594ZM25.3477 26.4962C24.2332 26.9379 23.0168 27.1825 21.746 27.1825C16.3434 27.1825 11.9602 22.7993 11.9602 17.3968C11.9602 16.9279 11.9942 16.4726 12.0554 16.024L5.64708 10.9749C4.09767 12.9932 2.98998 15.0047 2.34439 16.5609C2.12014 17.0978 2.12014 17.6958 2.34439 18.2326C3.35695 20.6587 5.48399 24.1924 8.66435 27.1417C11.8583 30.1182 16.2551 32.619 21.746 32.619C24.9943 32.619 27.8553 31.7424 30.3221 30.4104L25.3477 26.4962Z" fill="#1351B4"/>
</svg>
