<svg width="24" height="24" viewBox="0 0 24 24" fill="none" xmlns="http://www.w3.org/2000/svg">
<g clip-path="url(#clip0_10_2694)">
<path d="M2.8996 2.89945C2.8996 2.09756 2.25175 1.44971 1.44986 1.44971C0.647974 1.44971 0.00012207 2.09756 0.00012207 2.89945V18.1217C0.00012207 20.1242 1.62202 21.7461 3.62447 21.7461H21.7462C22.5481 21.7461 23.196 21.0982 23.196 20.2963C23.196 19.4944 22.5481 18.8466 21.7462 18.8466H3.62447C3.22579 18.8466 2.8996 18.5204 2.8996 18.1217V2.89945ZM21.3204 6.82281C21.8867 6.2565 21.8867 5.33682 21.3204 4.77052C20.7541 4.20421 19.8344 4.20421 19.2681 4.77052L14.4975 9.5456L11.897 6.94513C11.3307 6.37882 10.4111 6.37882 9.84476 6.94513L4.77067 12.0192C4.20437 12.5855 4.20437 13.5052 4.77067 14.0715C5.33698 14.6378 6.25666 14.6378 6.82296 14.0715L10.8732 10.0258L13.4736 12.6263C14.0399 13.1926 14.9596 13.1926 15.5259 12.6263L21.3249 6.82734L21.3204 6.82281Z" fill="#FFCD07"/>
</g>
<defs>
<clipPath id="clip0_10_2694">
<path d="M0 0H23.1958V23.1958H0V0Z" fill="white"/>
</clipPath>
</defs>
</svg>
