<svg width="27" height="21" viewBox="0 0 27 21" fill="none" xmlns="http://www.w3.org/2000/svg">
<path d="M-0.000488281 3.64635V17.6816C-0.000488281 18.4971 0.457086 19.2673 1.22273 19.5527C5.16421 21.0251 9.10569 20.0194 13.0472 19.0136C16.6625 18.0939 20.2777 17.1697 23.8885 18.1573C24.9305 18.4428 26.0948 17.7269 26.0948 16.6442V2.61341C26.0948 1.79793 25.6373 1.02776 24.8716 0.742341C20.9301 -0.730051 16.9887 0.275705 13.0472 1.28146C9.43188 2.20114 5.81659 3.12082 2.20583 2.13318C1.1593 1.84777 -0.000488281 2.56358 -0.000488281 3.64635ZM13.0472 14.4967C11.0447 14.4967 9.42282 12.5487 9.42282 10.1475C9.42282 7.7464 11.0447 5.79831 13.0472 5.79831C15.0496 5.79831 16.6715 7.7464 16.6715 10.1475C16.6715 12.5487 15.0496 14.4967 13.0472 14.4967ZM2.89899 14.4967C4.49824 14.4967 5.79847 15.797 5.79847 17.3962H2.89899V14.4967ZM5.79847 5.07344C5.79847 6.67268 4.49824 7.97292 2.89899 7.97292V5.07344H5.79847ZM23.1954 12.3221V15.2216H20.2959C20.2959 13.6224 21.5961 12.3221 23.1954 12.3221ZM20.2959 2.89883H23.1954V5.79831C21.5961 5.79831 20.2959 4.49807 20.2959 2.89883Z" fill="#168821"/>
</svg>
