<svg width="24" height="19" viewBox="0 0 24 19" fill="none" xmlns="http://www.w3.org/2000/svg">
<path d="M19.2 10.6875V8.3125H24V10.6875H19.2ZM20.64 19L16.8 16.15L18.24 14.25L22.08 17.1L20.64 19ZM18.24 4.75L16.8 2.85L20.64 0L22.08 1.9L18.24 4.75ZM3.6 17.8125V13.0625H2.4C1.74 13.0625 1.175 12.8299 0.705 12.3648C0.235 11.8997 0 11.3406 0 10.6875V8.3125C0 7.65937 0.235 7.10026 0.705 6.63516C1.175 6.17005 1.74 5.9375 2.4 5.9375H7.2L13.2 2.375V16.625L7.2 13.0625H6V17.8125H3.6ZM10.8 12.4094V6.59062L7.86 8.3125H2.4V10.6875H7.86L10.8 12.4094ZM14.4 13.4781V5.52187C14.94 5.99687 15.375 6.57578 15.705 7.25859C16.035 7.94141 16.2 8.68854 16.2 9.5C16.2 10.3115 16.035 11.0586 15.705 11.7414C15.375 12.4242 14.94 13.0031 14.4 13.4781Z" fill="#333333"/>
</svg>
