<svg width="20" height="16" viewBox="0 0 20 16" fill="none" xmlns="http://www.w3.org/2000/svg">
<path d="M9.09091 13.3778V4.62222C8.4697 4.26667 7.81061 4 7.11364 3.82222C6.41667 3.64444 5.71212 3.55556 5 3.55556C4.45455 3.55556 3.91288 3.60741 3.375 3.71111C2.83712 3.81481 2.31818 3.97037 1.81818 4.17778V12.9778C2.34848 12.8 2.875 12.6667 3.39773 12.5778C3.92045 12.4889 4.45455 12.4444 5 12.4444C5.71212 12.4444 6.4053 12.5222 7.07955 12.6778C7.75379 12.8333 8.42424 13.0667 9.09091 13.3778ZM10 16C9.27273 15.437 8.48485 15 7.63636 14.6889C6.78788 14.3778 5.90909 14.2222 5 14.2222C4.36364 14.2222 3.73864 14.3037 3.125 14.4667C2.51136 14.6296 1.92424 14.8593 1.36364 15.1556C1.04545 15.3185 0.738636 15.3111 0.443182 15.1333C0.147727 14.9556 0 14.6963 0 14.3556V3.64444C0 3.48148 0.0416667 3.32593 0.125 3.17778C0.208333 3.02963 0.333333 2.91852 0.5 2.84444C1.19697 2.48889 1.92424 2.22222 2.68182 2.04444C3.43939 1.86667 4.21212 1.77778 5 1.77778C6.12121 1.77778 7.07576 1.9037 7.86364 2.15556C8.65152 2.40741 9.5 2.79259 10.4091 3.31111C10.5758 3.4 10.7008 3.5037 10.7841 3.62222C10.8674 3.74074 10.9091 3.8963 10.9091 4.08889V13.3778C11.5758 13.0667 12.2462 12.8333 12.9205 12.6778C13.5947 12.5222 14.2879 12.4444 15 12.4444C15.5455 12.4444 16.0795 12.4889 16.6023 12.5778C17.125 12.6667 17.6515 12.8 18.1818 12.9778V2.28889C18.4091 2.36296 18.6326 2.44444 18.8523 2.53333C19.072 2.62222 19.2879 2.72593 19.5 2.84444C19.6667 2.91852 19.7917 3.02963 19.875 3.17778C19.9583 3.32593 20 3.48148 20 3.64444V14.3556C20 14.6963 19.8523 14.9556 19.5568 15.1333C19.2614 15.3111 18.9545 15.3185 18.6364 15.1556C18.0758 14.8593 17.4886 14.6296 16.875 14.4667C16.2614 14.3037 15.6364 14.2222 15 14.2222C14.0909 14.2222 13.2121 14.3778 12.3636 14.6889C11.5152 15 10.7273 15.437 10 16ZM13.1818 10.6667V0.888889L15.9091 0V9.77778L13.1818 10.6667Z" fill="#333333"/>
</svg>
