<svg width="35" height="35" viewBox="0 0 35 35" fill="none" xmlns="http://www.w3.org/2000/svg">
<path d="M28.2699 14.135C28.2699 17.2542 27.2574 20.1355 25.5517 22.4732L34.155 31.0833C35.0044 31.9328 35.0044 33.3123 34.155 34.1618C33.3055 35.0112 31.926 35.0112 31.0765 34.1618L22.4732 25.5517C20.1355 27.2642 17.2542 28.2699 14.135 28.2699C6.32676 28.2699 0 21.9432 0 14.135C0 6.32676 6.32676 0 14.135 0C21.9432 0 28.2699 6.32676 28.2699 14.135ZM14.135 23.9207C15.42 23.9207 16.6925 23.6676 17.8798 23.1758C19.0671 22.684 20.1458 21.9632 21.0545 21.0545C21.9632 20.1458 22.684 19.0671 23.1758 17.8798C23.6676 16.6925 23.9207 15.42 23.9207 14.135C23.9207 12.8499 23.6676 11.5774 23.1758 10.3901C22.684 9.20286 21.9632 8.12409 21.0545 7.2154C20.1458 6.30671 19.0671 5.5859 17.8798 5.09412C16.6925 4.60234 15.42 4.34922 14.135 4.34922C12.8499 4.34922 11.5774 4.60234 10.3901 5.09412C9.20286 5.5859 8.12409 6.30671 7.2154 7.2154C6.30671 8.12409 5.58589 9.20286 5.09411 10.3901C4.60233 11.5774 4.34922 12.8499 4.34922 14.135C4.34922 15.42 4.60233 16.6925 5.09411 17.8798C5.58589 19.0671 6.30671 20.1458 7.2154 21.0545C8.12409 21.9632 9.20286 22.684 10.3901 23.1758C11.5774 23.6676 12.8499 23.9207 14.135 23.9207Z" fill="#E52207"/>
</svg>
