<svg width="24" height="24" viewBox="0 0 24 24" fill="none" xmlns="http://www.w3.org/2000/svg">
<g clip-path="url(#clip0_10_2709)">
<path d="M16.6353 18.6881L4.5073 6.56007C3.49248 7.9781 2.89899 9.71779 2.89899 11.5979C2.89899 16.4002 6.79517 20.2964 11.5974 20.2964C13.4776 20.2964 15.2172 19.7029 16.6353 18.6881ZM18.6876 16.6358C19.7024 15.2177 20.2959 13.4781 20.2959 11.5979C20.2959 6.79566 16.3997 2.89948 11.5974 2.89948C9.7173 2.89948 7.97761 3.49297 6.55958 4.50778L18.6876 16.6358ZM-0.000488281 11.5979C-0.000488281 8.52196 1.22143 5.57198 3.39646 3.39695C5.5715 1.22192 8.52147 0 11.5974 0C14.6734 0 17.6234 1.22192 19.7984 3.39695C21.9734 5.57198 23.1953 8.52196 23.1953 11.5979C23.1953 14.6739 21.9734 17.6239 19.7984 19.7989C17.6234 21.9739 14.6734 23.1958 11.5974 23.1958C8.52147 23.1958 5.5715 21.9739 3.39646 19.7989C1.22143 17.6239 -0.000488281 14.6739 -0.000488281 11.5979Z" fill="#EF4444"/>
</g>
<defs>
<clipPath id="clip0_10_2709">
<path d="M0 0H23.1958V23.1958H0V0Z" fill="white"/>
</clipPath>
</defs>
</svg>
