<svg width="24" height="24" viewBox="0 0 24 24" fill="none" xmlns="http://www.w3.org/2000/svg">
<g clip-path="url(#clip0_10_2626)">
<path d="M18.9056 16.3141L15.6618 16.0966C15.4263 16.083 15.1952 16.1465 15.0049 16.2869C14.8147 16.4274 14.6787 16.6222 14.6244 16.8532L13.827 20.0064C13.1157 20.1967 12.3682 20.2964 11.598 20.2964C10.8279 20.2964 10.0803 20.1967 9.36907 20.0064L8.57171 16.8532C8.51281 16.6267 8.3769 16.4274 8.19115 16.2869C8.0054 16.1465 7.76982 16.083 7.53424 16.0966L4.29045 16.3141C3.49309 15.0818 2.99927 13.6321 2.91319 12.0736L5.66317 10.343C5.86251 10.2161 6.00748 10.0259 6.07997 9.80387C6.15246 9.58187 6.14339 9.34176 6.05732 9.1243L4.84769 6.10703C5.79908 4.94724 7.03589 4.03209 8.45845 3.48391L10.9592 5.56791C11.1405 5.71741 11.367 5.79896 11.598 5.79896C11.8291 5.79896 12.0601 5.71741 12.2368 5.56791L14.7376 3.48391C16.1557 4.03209 17.397 4.94724 18.3439 6.10703L17.1342 9.1243C17.0482 9.34176 17.0391 9.58187 17.1116 9.80387C17.1841 10.0259 17.3336 10.2161 17.5284 10.343L20.2784 12.0736C20.1923 13.6321 19.6985 15.0818 18.9011 16.3141H18.9056ZM11.598 23.1958C14.674 23.1958 17.624 21.9739 19.799 19.7989C21.974 17.6239 23.196 14.6739 23.196 11.5979C23.196 8.52196 21.974 5.57198 19.799 3.39695C17.624 1.22192 14.674 0 11.598 0C8.52208 0 5.57211 1.22192 3.39707 3.39695C1.22204 5.57198 0.00012207 8.52196 0.00012207 11.5979C0.00012207 14.6739 1.22204 17.6239 3.39707 19.7989C5.57211 21.9739 8.52208 23.1958 11.598 23.1958ZM12.2368 8.4402C11.8563 8.16385 11.3398 8.16385 10.9592 8.4402L8.78917 10.0123C8.40861 10.2886 8.25005 10.7779 8.39502 11.2264L9.22409 13.7771C9.36907 14.2256 9.78587 14.5291 10.257 14.5291H12.939C13.4102 14.5291 13.827 14.2256 13.972 13.7771L14.8011 11.2264C14.946 10.7779 14.7875 10.2886 14.4069 10.0123L12.2368 8.43567V8.4402Z" fill="#1351B4"/>
</g>
<defs>
<clipPath id="clip0_10_2626">
<path d="M0 0H23.1958V23.1958H0V0Z" fill="white"/>
</clipPath>
</defs>
</svg>
