<svg width="20" height="23" viewBox="0 0 20 23" fill="none" xmlns="http://www.w3.org/2000/svg">
<path d="M9.88889 16.4286C10.2778 16.4286 10.6065 16.2962 10.875 16.0315C11.1435 15.7669 11.2778 15.4429 11.2778 15.0595C11.2778 14.6762 11.1435 14.3522 10.875 14.0875C10.6065 13.8228 10.2778 13.6905 9.88889 13.6905C9.5 13.6905 9.1713 13.8228 8.90278 14.0875C8.63426 14.3522 8.5 14.6762 8.5 15.0595C8.5 15.4429 8.63426 15.7669 8.90278 16.0315C9.1713 16.2962 9.5 16.4286 9.88889 16.4286ZM8.88889 12.2119H10.9444C10.9444 11.9016 10.9583 11.6369 10.9861 11.4179C11.0139 11.1988 11.0741 10.9889 11.1667 10.7881C11.2593 10.5873 11.375 10.4002 11.5139 10.2268C11.6528 10.0534 11.8519 9.83889 12.1111 9.58333C12.7593 8.94444 13.2176 8.41052 13.4861 7.98155C13.7546 7.55258 13.8889 7.06429 13.8889 6.51667C13.8889 5.54921 13.5556 4.76885 12.8889 4.1756C12.2222 3.58234 11.3241 3.28571 10.1944 3.28571C9.17593 3.28571 8.31019 3.53214 7.59722 4.025C6.88426 4.51786 6.38889 5.20238 6.11111 6.07857L7.94444 6.79048C8.07407 6.29762 8.33333 5.9006 8.72222 5.5994C9.11111 5.29821 9.56481 5.14762 10.0833 5.14762C10.5833 5.14762 11 5.27996 11.3333 5.54464C11.6667 5.80933 11.8333 6.16071 11.8333 6.59881C11.8333 6.90913 11.7315 7.2377 11.5278 7.58452C11.3241 7.93135 10.9815 8.31468 10.5 8.73452C10.1852 8.99008 9.93056 9.24107 9.73611 9.4875C9.54167 9.73393 9.37963 9.99405 9.25 10.2679C9.12037 10.5417 9.02778 10.8292 8.97222 11.1304C8.91667 11.4315 8.88889 11.7921 8.88889 12.2119ZM10 23L6.66667 19.7143H2.22222C1.61111 19.7143 1.08796 19.4998 0.652778 19.0708C0.217593 18.6419 0 18.1262 0 17.5238V2.19048C0 1.5881 0.217593 1.07242 0.652778 0.643452C1.08796 0.214484 1.61111 0 2.22222 0H17.7778C18.3889 0 18.912 0.214484 19.3472 0.643452C19.7824 1.07242 20 1.5881 20 2.19048V17.5238C20 18.1262 19.7824 18.6419 19.3472 19.0708C18.912 19.4998 18.3889 19.7143 17.7778 19.7143H13.3333L10 23ZM2.22222 17.5238H7.55556L10 19.9333L12.4444 17.5238H17.7778V2.19048H2.22222V17.5238Z" fill="#333333"/>
</svg>
