<svg width="31" height="35" viewBox="0 0 31 35" fill="none" xmlns="http://www.w3.org/2000/svg">
<path d="M9.78574 9.78574V13.0477H20.6588V9.78574C20.6588 6.78206 18.2259 4.34922 15.2223 4.34922C12.2186 4.34922 9.78574 6.78206 9.78574 9.78574ZM5.43652 13.0477V9.78574C5.43652 4.3832 9.81972 0 15.2223 0C20.6248 0 25.008 4.3832 25.008 9.78574V13.0477H26.0953C28.4942 13.0477 30.4445 14.998 30.4445 17.3969V30.4445C30.4445 32.8434 28.4942 34.7938 26.0953 34.7938H4.34922C1.95035 34.7938 0 32.8434 0 30.4445V17.3969C0 14.998 1.95035 13.0477 4.34922 13.0477H5.43652Z" fill="#E52207"/>
</svg>
