<svg width="20" height="19" viewBox="0 0 20 19" fill="none" xmlns="http://www.w3.org/2000/svg">
<path d="M2.10526 16.8889V2.11111V6.83472V6.33333V16.8889ZM4.21053 10.5556H10.0263C10.0614 10.1685 10.1491 9.79907 10.2895 9.44722C10.4298 9.09537 10.6053 8.76111 10.8158 8.44444H4.21053V10.5556ZM4.21053 14.7778H8.3421C8.64035 14.4259 8.98246 14.14 9.36842 13.9201C9.75439 13.7002 10.1579 13.5199 10.5789 13.3792C10.5088 13.2736 10.4474 13.1593 10.3947 13.0361C10.3421 12.913 10.2982 12.7898 10.2632 12.6667H4.21053V14.7778ZM4.21053 6.33333H14.7368V4.22222H4.21053V6.33333ZM2.10526 19C1.52632 19 1.0307 18.7933 0.618421 18.3799C0.20614 17.9664 0 17.4694 0 16.8889V2.11111C0 1.53056 0.20614 1.03356 0.618421 0.620139C1.0307 0.206713 1.52632 0 2.10526 0H16.8421C17.4211 0 17.9167 0.206713 18.3289 0.620139C18.7412 1.03356 18.9474 1.53056 18.9474 2.11111V8.91944C18.7018 8.46204 18.4035 8.05741 18.0526 7.70556C17.7018 7.3537 17.2982 7.06343 16.8421 6.83472V2.11111H2.10526V16.8889H7.42105C7.40351 16.9944 7.39035 17.1 7.38158 17.2056C7.37281 17.3111 7.36842 17.4167 7.36842 17.5222V19H2.10526ZM14.7368 13.7222C14 13.7222 13.3772 13.4671 12.8684 12.9569C12.3596 12.4468 12.1053 11.8222 12.1053 11.0833C12.1053 10.3444 12.3596 9.71991 12.8684 9.20972C13.3772 8.69954 14 8.44444 14.7368 8.44444C15.4737 8.44444 16.0965 8.69954 16.6053 9.20972C17.114 9.71991 17.3684 10.3444 17.3684 11.0833C17.3684 11.8222 17.114 12.4468 16.6053 12.9569C16.0965 13.4671 15.4737 13.7222 14.7368 13.7222ZM9.47368 19V17.5222C9.47368 17.1 9.58333 16.7086 9.80263 16.3479C10.0219 15.9873 10.3333 15.7278 10.7368 15.5694C11.3684 15.3056 12.0219 15.1076 12.6974 14.9757C13.3728 14.8438 14.0526 14.7778 14.7368 14.7778C15.4211 14.7778 16.1009 14.8438 16.7763 14.9757C17.4518 15.1076 18.1053 15.3056 18.7368 15.5694C19.1404 15.7278 19.4518 15.9873 19.6711 16.3479C19.8904 16.7086 20 17.1 20 17.5222V19H9.47368Z" fill="#333333"/>
</svg>
