<svg width="20" height="22" viewBox="0 0 20 22" fill="none" xmlns="http://www.w3.org/2000/svg">
<path d="M13.4502 1.89941C13.4102 2.16603 13.3897 2.43261 13.3896 2.69922C13.3896 5.09965 15.2102 7.04004 17.4502 7.04004C17.7001 7.04002 17.9405 7.00946 18.1904 6.9668V15.5752C18.1904 19.1929 16.19 21.3379 12.79 21.3379H5.40137C2.00037 21.3379 0 19.1929 0 15.5752V7.68164C2.01618e-05 4.05436 2.00038 1.89941 5.40137 1.89941H13.4502ZM13.6514 8.38574C13.3804 8.35374 13.1112 8.48209 12.9502 8.7168L10.5312 12.0557L7.75977 9.73047C7.58988 9.59187 7.3903 9.53728 7.19043 9.55957C6.99162 9.59155 6.81143 9.7075 6.69043 9.87793L3.73145 13.9873L3.66992 14.083C3.50003 14.4233 3.57993 14.8609 3.87988 15.0967C4.01982 15.1926 4.16994 15.2568 4.33984 15.2568C4.57074 15.2675 4.78968 15.138 4.92969 14.9365L7.44043 11.4893L10.29 13.7734L10.3799 13.8359C10.6999 14.0173 11.1001 13.9334 11.3301 13.6123L14.2197 9.63379L14.1797 9.65527C14.3397 9.4206 14.3697 9.12215 14.2598 8.85547C14.1508 8.58888 13.9102 8.40722 13.6514 8.38574ZM17.5898 0C18.9198 0 20 1.15237 20 2.57129C19.9999 3.99014 18.9198 5.14258 17.5898 5.14258C16.26 5.14243 15.1798 3.99004 15.1797 2.57129C15.1797 1.15246 16.26 0.000148289 17.5898 0Z" fill="#333333"/>
</svg>
