<svg width="20" height="22" viewBox="0 0 20 22" fill="none" xmlns="http://www.w3.org/2000/svg">
<path fill-rule="evenodd" clip-rule="evenodd" d="M5.33 0H14.669C18.07 0 19.99 2.05797 20 5.68635V15.6508C20 19.2781 18.07 21.3372 14.669 21.3372H5.33C1.929 21.3372 0 19.2781 0 15.6508V5.68635C0 2.05797 1.929 0 5.33 0ZM10.049 16.9204C10.48 16.9204 10.839 16.579 10.879 16.1202V5.24894C10.919 4.91821 10.77 4.58642 10.5 4.40612C10.219 4.22476 9.879 4.22476 9.61 4.40612C9.339 4.58642 9.19 4.91821 9.219 5.24894V16.1202C9.27 16.579 9.629 16.9204 10.049 16.9204ZM14.65 16.9204C15.07 16.9204 15.429 16.579 15.48 16.1202V12.6209C15.509 12.2785 15.36 11.9595 15.089 11.7781C14.82 11.5967 14.48 11.5967 14.2 11.7781C13.929 11.9595 13.78 12.2785 13.82 12.6209V16.1202C13.86 16.579 14.219 16.9204 14.65 16.9204ZM6.219 16.1202C6.179 16.579 5.82 16.9204 5.389 16.9204C4.959 16.9204 4.599 16.579 4.56 16.1202V8.74823C4.53 8.41644 4.679 8.08678 4.95 7.90542C5.219 7.72405 5.56 7.72405 5.83 7.90542C6.099 8.08678 6.25 8.41644 6.219 8.74823V16.1202Z" fill="#333333"/>
</svg>
