<svg width="518" height="84" viewBox="0 0 518 84" fill="none" xmlns="http://www.w3.org/2000/svg">
<mask id="mask0_164_14030" style="mask-type:luminance" maskUnits="userSpaceOnUse" x="99" y="5" width="163" height="79">
<path d="M261.555 5H99V83.4421H261.555V5Z" fill="white"/>
</mask>
<g mask="url(#mask0_164_14030)">
<path d="M112.412 28.4299H124.786L137.634 68.7806H126.396L123.952 60.8729H113.187L110.802 68.7806H99.5054L112.412 28.4299ZM122.173 53.4895L118.599 39.2836L114.848 53.4895H122.173Z" fill="#183EFF"/>
<path d="M140.986 68.7806V28.4299H158.382C160.287 28.4299 162.098 28.8397 163.816 29.6556C165.538 30.4678 166.984 31.531 168.15 32.8453C169.317 34.1595 170.242 35.6547 170.926 37.327C171.609 39.0012 171.953 40.6994 171.953 42.4216C171.953 44.214 171.628 45.9509 170.978 47.6344C170.332 49.3178 169.442 50.8074 168.305 52.1014C167.168 53.3972 165.758 54.4382 164.074 55.2246C162.391 56.0128 160.586 56.4059 158.662 56.4059H152.054V68.7806H140.986ZM152.054 46.7188H157.909C158.686 46.7188 159.349 46.3773 159.895 45.6925C160.442 45.0095 160.715 43.9186 160.715 42.4216C160.715 40.9006 160.405 39.7986 159.785 39.1138C159.164 38.4309 158.448 38.0875 157.636 38.0875H152.054V46.7188Z" fill="#183EFF"/>
<path d="M176.361 68.7806V28.4299H187.429V68.7806H176.361Z" fill="#183EFF"/>
<path d="M225.777 38.0875H214.208V68.7806H203.11V38.0875H191.452V28.4299H225.777V38.0875Z" fill="#183EFF"/>
<path d="M235.433 28.4299H247.808L260.655 68.7806H249.417L246.974 60.8729H236.208L233.824 68.7806H222.527L235.433 28.4299ZM245.194 53.4895L241.621 39.2836L237.87 53.4895H245.194Z" fill="#183EFF"/>
</g>
<mask id="mask1_164_14030" style="mask-type:luminance" maskUnits="userSpaceOnUse" x="10" y="0" width="70" height="54">
<path d="M10.1582 0.712891H79.7833V53.704H10.1582V0.712891Z" fill="white"/>
</mask>
<g mask="url(#mask1_164_14030)">
<mask id="mask2_164_14030" style="mask-type:luminance" maskUnits="userSpaceOnUse" x="1" y="0" width="99" height="83">
<path d="M1.14844 25.9748L81.5438 0.167969L99.6732 56.6483L19.2787 82.4551L1.14844 25.9748Z" fill="white"/>
</mask>
<g mask="url(#mask2_164_14030)">
<mask id="mask3_164_14030" style="mask-type:luminance" maskUnits="userSpaceOnUse" x="1" y="0" width="99" height="83">
<path d="M1.14844 25.9748L81.5438 0.167969L99.6732 56.6483L19.2787 82.4551L1.14844 25.9748Z" fill="white"/>
</mask>
<g mask="url(#mask3_164_14030)">
<path d="M39.5381 13.6776C39.1325 13.8085 38.7324 13.9412 38.3379 14.0768C38.0251 14.1817 37.7132 14.2903 37.406 14.3979C37.2017 14.4722 36.9975 14.5464 36.797 14.6188C36.4285 14.7553 36.0637 14.8899 35.7101 15.0291C35.5421 15.0922 35.375 15.1591 35.207 15.2259C35.0445 15.2918 34.8774 15.3577 34.7141 15.4236C34.5748 15.4812 34.4393 15.5378 34.3001 15.5963C34.0244 15.7067 33.7506 15.8246 33.4814 15.9425C32.8149 16.2303 32.1651 16.5273 31.5349 16.8299C31.3929 16.893 31.248 16.9617 31.1088 17.0332C31.0132 17.0768 30.9222 17.1232 30.8285 17.1706C30.8136 17.1799 30.7941 17.1863 30.7793 17.1956C30.5361 17.3126 30.3003 17.437 30.0618 17.5567C29.7425 17.721 29.4269 17.8881 29.114 18.0589C28.9015 18.1749 28.6889 18.2919 28.481 18.4107C28.325 18.4961 28.1728 18.5843 28.0178 18.6743C28.0141 18.6752 28.0141 18.6752 28.0113 18.6808C27.7542 18.8238 27.5008 18.976 27.2511 19.1264C27.1907 19.1588 27.136 19.1932 27.0775 19.2294C26.8241 19.3816 26.5762 19.5394 26.3321 19.6926C26.2189 19.7641 26.1056 19.8355 25.9942 19.9107C25.9859 19.9135 25.9831 19.9191 25.9757 19.9209C25.7724 20.0527 25.57 20.1873 25.3714 20.321C25.35 20.3368 25.3278 20.3479 25.3064 20.3637C25.2851 20.3795 25.2637 20.3953 25.2433 20.411C24.9936 20.5781 24.7495 20.7443 24.5109 20.9179C24.2714 21.0868 24.0394 21.2529 23.8092 21.4237C23.6959 21.5082 23.5873 21.5918 23.4778 21.6744C23.2662 21.835 23.0582 21.9937 22.8559 22.1552C22.8169 22.1849 22.7825 22.2137 22.7482 22.2424C22.5069 22.4337 22.2739 22.6221 22.0418 22.8152C21.8311 22.9925 21.6204 23.1698 21.4153 23.3498C21.1646 23.5661 20.9205 23.7889 20.6801 24.0107C20.4759 24.1945 20.2772 24.3811 20.0842 24.5705C20.0368 24.6159 19.9904 24.6624 19.9477 24.7069C19.4966 25.145 19.0677 25.585 18.6584 26.0324C18.4867 26.219 18.3177 26.4047 18.1525 26.5987C18.0866 26.6673 18.0263 26.7397 17.9622 26.8131C17.8221 26.9764 17.681 27.1398 17.5454 27.306C17.3681 27.5167 17.1955 27.7302 17.0275 27.9455C16.9152 28.0875 16.8038 28.2323 16.697 28.3762C16.5847 28.5182 16.478 28.6658 16.3712 28.8097C16.2273 29.0056 16.0881 29.1986 15.9544 29.3954C15.8143 29.5894 15.6843 29.7853 15.5544 29.9802C15.4263 30.1705 15.3038 30.3626 15.1822 30.5557C15.0875 30.6996 14.9993 30.8472 14.9093 30.9901C14.7923 31.1851 14.6744 31.3809 14.5621 31.5749C14.5565 31.5851 14.551 31.5953 14.5454 31.6065C14.4368 31.7856 14.3328 31.9685 14.2344 32.1532C14.124 32.3556 14.0135 32.5579 13.9086 32.7621C13.8325 32.9097 13.7555 33.0527 13.6886 33.1965C13.6831 33.2077 13.6766 33.2142 13.6738 33.2188C13.6014 33.3646 13.529 33.5066 13.4612 33.6514C13.3907 33.8008 13.3192 33.9466 13.2533 34.0951C13.1827 34.2445 13.1168 34.393 13.05 34.5416C12.9173 34.8386 12.7938 35.1366 12.6741 35.4345C12.6258 35.5422 12.585 35.6471 12.545 35.7566C12.533 35.7863 12.5218 35.8207 12.5098 35.8513C12.4086 36.1075 12.3102 36.3628 12.222 36.619C12.2025 36.6691 12.183 36.7183 12.1682 36.7675C12.0939 36.9717 12.0243 37.1778 11.9584 37.3829C11.9268 37.4766 11.8999 37.5685 11.8711 37.6567C11.8192 37.809 11.7737 37.9556 11.7328 38.0995C11.6836 38.2471 11.6437 38.3956 11.6019 38.5413C11.4952 38.9043 11.3968 39.2691 11.3114 39.6292C11.2715 39.7787 11.2381 39.9207 11.2065 40.0664C11.1629 40.2344 11.1285 40.3987 11.0914 40.5686C11.0617 40.6837 11.0413 40.7951 11.0162 40.9083C11.0144 40.9176 11.0107 40.9325 11.0088 40.9417C10.967 41.1385 10.929 41.3353 10.8956 41.5302C10.8844 41.5776 10.8761 41.6203 10.8677 41.6621C10.8241 41.895 10.7842 42.1271 10.7489 42.3582C10.7118 42.5717 10.6793 42.7834 10.6551 42.9931C10.6264 43.1779 10.6004 43.357 10.58 43.5389C10.5809 43.5427 10.5772 43.5445 10.579 43.5482C10.5512 43.7367 10.5326 43.9223 10.5131 44.1089C10.5103 44.1274 10.5103 44.1404 10.5076 44.159C10.4825 44.3679 10.4602 44.573 10.4472 44.7791C10.4287 44.9378 10.4184 45.0993 10.4082 45.2562C10.3869 45.465 10.3739 45.6702 10.3618 45.8762C10.3488 46.0823 10.3386 46.2828 10.3293 46.487C10.3182 46.6968 10.3117 46.9094 10.3098 47.121C10.3024 47.3029 10.2978 47.4802 10.2978 47.6594C10.2959 47.884 10.2959 48.1031 10.2978 48.3259C10.2978 48.5449 10.2969 48.7603 10.3043 48.9775C10.3089 49.1817 10.3117 49.3822 10.3228 49.5808C10.3303 49.7535 10.3368 49.9233 10.346 50.0904C10.3683 50.6102 10.4045 51.1198 10.45 51.6146C10.4621 51.777 10.4788 51.9376 10.4955 52.0991C10.5419 52.5846 10.5957 53.0534 10.6598 53.511C11.8674 45.4455 17.5027 38.3436 25.7798 35.687L77.3683 19.1273L79.7493 0.770508L39.5381 13.6776ZM38.8308 26.8149L35.5077 27.8815L36.5928 17.6013L39.9159 16.5338L38.8308 26.8149Z" fill="#F1C30B"/>
</g>
</g>
</g>
<mask id="mask4_164_14030" style="mask-type:luminance" maskUnits="userSpaceOnUse" x="78" y="0" width="7" height="29">
<path d="M78.833 0H84.2985V28.9906H78.833V0Z" fill="white"/>
</mask>
<g mask="url(#mask4_164_14030)">
<mask id="mask5_164_14030" style="mask-type:luminance" maskUnits="userSpaceOnUse" x="1" y="0" width="99" height="83">
<path d="M1.14941 25.9748L81.5448 0.167969L99.6742 56.6483L19.2797 82.4551L1.14941 25.9748Z" fill="white"/>
</mask>
<g mask="url(#mask5_164_14030)">
<mask id="mask6_164_14030" style="mask-type:luminance" maskUnits="userSpaceOnUse" x="1" y="0" width="99" height="83">
<path d="M1.14941 25.9748L81.5448 0.167969L99.6742 56.6483L19.2797 82.4551L1.14941 25.9748Z" fill="white"/>
</mask>
<g mask="url(#mask6_164_14030)">
<path d="M79.1259 18.5638L78.8892 20.3933L80.0383 23.9754L81.594 28.8208L82.0981 24.9277L84.2117 8.62979L81.5077 0.206055L79.1259 18.5638Z" fill="#F1C30B"/>
</g>
</g>
</g>
<mask id="mask7_164_14030" style="mask-type:luminance" maskUnits="userSpaceOnUse" x="0" y="0" width="99" height="83">
<path d="M0 26.5197L80.3954 0.712891L98.5247 57.1932L18.1303 83L0 26.5197Z" fill="white"/>
</mask>
<g mask="url(#mask7_164_14030)">
<mask id="mask8_164_14030" style="mask-type:luminance" maskUnits="userSpaceOnUse" x="0" y="0" width="99" height="83">
<path d="M0 26.5197L80.3954 0.712891L98.5247 57.1932L18.1303 83L0 26.5197Z" fill="white"/>
</mask>
<g mask="url(#mask8_164_14030)">
<path d="M11.5276 62.1704C11.6408 62.6336 11.7708 63.0921 11.9184 63.5535C12.027 63.8914 12.1421 64.2227 12.2655 64.5513C16.0926 74.671 27.2259 80.1216 37.6453 76.7771C45.2782 74.3266 50.4791 67.8122 51.6171 60.3873C51.6116 60.3845 51.6153 60.3826 51.6181 60.378C51.658 59.6939 51.7285 59.0135 51.8269 58.3377C51.8251 58.3294 51.8269 58.3238 51.826 58.3201C53.5182 46.1481 62.8729 35.0065 76.5208 30.6253L78.8543 29.8762L76.1495 21.4487L25.1411 37.8228C14.8451 41.1273 8.97773 51.8243 11.5276 62.1704ZM40.8273 54.2739C42.4991 59.4813 39.6336 65.0619 34.4216 66.7355C29.2105 68.4082 23.6281 65.539 21.9563 60.3316C20.2836 55.1195 23.1528 49.5371 28.3639 47.8644C33.576 46.1908 39.1547 49.0619 40.8273 54.2739Z" fill="#F1C30B"/>
</g>
</g>
<path d="M290.389 28.2507C294.133 28.2507 297.441 29.0362 300.312 30.6071C303.188 32.178 305.329 34.291 306.739 36.946L298.365 42.8978C298.003 41.9685 297.508 41.172 296.882 40.5082C296.263 39.839 295.569 39.3245 294.803 38.9705C294.034 38.611 293.27 38.351 292.513 38.1961C291.752 38.0413 290.969 37.9638 290.167 37.9638C288.663 37.9638 287.316 38.2708 286.129 38.882C284.94 39.496 283.994 40.3091 283.286 41.3269C282.584 42.3391 282.05 43.4482 281.682 44.6568C281.32 45.8681 281.14 47.121 281.14 48.4181C281.14 51.3248 281.97 53.814 283.629 55.8855C285.294 57.9514 287.512 58.983 290.278 58.983C291.354 58.983 292.385 58.8337 293.376 58.5294C294.363 58.228 295.306 57.697 296.208 56.9364C297.115 56.1786 297.781 55.23 298.21 54.0933L307.149 59.4145C306.396 61.3034 305.083 62.9711 303.21 64.4148C301.335 65.8613 299.255 66.9371 296.971 67.6451C294.684 68.3476 292.38 68.6961 290.057 68.6961C287.203 68.6961 284.506 68.1042 281.97 66.915C279.439 65.7202 277.307 64.1604 275.576 62.2355C273.85 60.305 272.489 58.098 271.493 55.6199C270.498 53.1419 270 50.6307 270 48.0862C270 45.6386 270.467 43.238 271.405 40.8844C272.348 38.5335 273.665 36.415 275.354 34.5344C277.05 32.6482 279.204 31.127 281.815 29.9765C284.431 28.826 287.291 28.2507 290.389 28.2507Z" fill="#00D000"/>
<path d="M311.016 68.3645V28.4612H321.968V68.3645H311.016Z" fill="#00D000"/>
<path d="M328.823 68.3645V28.4612H344.167C347.381 28.4612 350.285 28.9811 352.874 30.021C355.462 31.0554 357.575 32.4825 359.213 34.3023C360.85 36.1166 362.103 38.2185 362.974 40.6081C363.842 42.9976 364.279 45.5835 364.279 48.363C364.279 54.3978 362.443 59.2377 358.77 62.8884C355.103 66.5391 350.235 68.3645 344.167 68.3645H328.823ZM344.167 38.0194H339.775V58.8173H344.167C346.961 58.8173 349.159 57.8493 350.761 55.9078C352.359 53.9691 353.161 51.4551 353.161 48.363C353.161 45.2378 352.356 42.7321 350.75 40.8514C349.14 38.9653 346.947 38.0194 344.167 38.0194Z" fill="#00D000"/>
<path d="M376.643 28.4612H388.889L401.589 68.3645H390.482L388.059 60.5431H377.417L375.061 68.3645H363.887L376.643 28.4612ZM386.311 53.2417L382.771 39.192L379.065 53.2417H386.311Z" fill="#00D000"/>
<path d="M404.908 68.3645V28.4612H420.252C423.466 28.4612 426.37 28.9811 428.959 30.021C431.547 31.0554 433.66 32.4825 435.298 34.3023C436.935 36.1166 438.188 38.2185 439.059 40.6081C439.927 42.9976 440.364 45.5835 440.364 48.363C440.364 54.3978 438.528 59.2377 434.855 62.8884C431.188 66.5391 426.32 68.3645 420.252 68.3645H404.908ZM420.252 38.0194H415.86V58.8173H420.252C423.046 58.8173 425.244 57.8493 426.846 55.9078C428.444 53.9691 429.246 51.4551 429.246 48.363C429.246 45.2378 428.441 42.7321 426.835 40.8514C425.225 38.9653 423.032 38.0194 420.252 38.0194Z" fill="#00D000"/>
<path d="M455.207 23.173C454.726 23.173 454.314 23.267 453.968 23.4496C453.62 23.6266 453.362 23.8368 453.194 24.0802C453.03 24.318 452.906 24.5863 452.817 24.8877C452.729 25.192 452.674 25.4132 452.652 25.5515C452.635 25.6842 452.629 25.7949 452.629 25.8834H446.943C446.943 25.4492 447.026 24.8877 447.198 24.2018C447.375 23.516 447.668 22.7526 448.083 21.9119C448.495 21.0656 448.99 20.2829 449.565 19.5666C450.14 18.8447 450.884 18.2363 451.8 17.7412C452.712 17.2489 453.702 17 454.765 17C455.589 17 456.374 17.1521 457.121 17.4536C457.873 17.7495 458.484 18.0786 458.957 18.4382C459.436 18.7922 459.978 19.1213 460.584 19.4227C461.186 19.727 461.773 19.8763 462.342 19.8763C462.799 19.8763 463.208 19.7823 463.57 19.5887C463.938 19.3978 464.215 19.1738 464.4 18.9139C464.583 18.6566 464.735 18.3801 464.854 18.0841C464.97 17.7827 465.047 17.5421 465.086 17.3651C465.122 17.1881 465.141 17.0664 465.141 17H470.761C470.761 17.3098 470.667 17.7855 470.485 18.4271C470.308 19.0632 470.003 19.8155 469.578 20.6839C469.157 21.5551 468.654 22.371 468.073 23.1288C467.489 23.8893 466.723 24.5393 465.772 25.0758C464.821 25.6151 463.803 25.8834 462.719 25.8834C461.95 25.8834 461.195 25.7451 460.451 25.463C459.712 25.1754 459.101 24.8656 458.614 24.5337C458.133 24.1963 457.58 23.8866 456.955 23.6045C456.335 23.3168 455.752 23.173 455.207 23.173ZM452.729 28.461H464.975L477.675 68.3643H466.568L464.146 60.5429H453.503L451.147 68.3643H439.974L452.729 28.461ZM462.398 53.2415L458.858 39.1919L455.152 53.2415H462.398Z" fill="#00D000"/>
<path d="M477.185 48.3628C477.185 45.7465 477.693 43.2159 478.711 40.7738C479.735 38.3344 481.137 36.191 482.915 34.3463C484.691 32.4961 486.856 31.0164 489.409 29.9101C491.959 28.8039 494.68 28.2507 497.573 28.2507C500.494 28.2507 503.232 28.8343 505.793 29.9986C508.359 31.1575 510.497 32.6924 512.209 34.6007C513.918 36.5118 515.263 38.6829 516.236 41.1167C517.215 43.5505 517.707 46.0396 517.707 48.584C517.707 51.181 517.199 53.695 516.181 56.1288C515.169 58.5626 513.78 60.7088 512.01 62.5673C510.246 64.4204 508.086 65.9055 505.527 67.0256C502.966 68.1402 500.242 68.6961 497.352 68.6961C494.423 68.6961 491.682 68.1208 489.132 66.9703C486.58 65.8143 484.444 64.2821 482.727 62.3793C481.007 60.4765 479.654 58.3054 478.667 55.8633C477.677 53.424 477.185 50.9238 477.185 48.3628ZM497.463 58.983C498.981 58.983 500.339 58.6788 501.534 58.0648C502.734 57.4453 503.691 56.6267 504.399 55.6089C505.112 54.5856 505.652 53.4599 506.014 52.2347C506.382 51.004 506.567 49.7124 506.567 48.3628C506.567 46.4987 506.241 44.7978 505.594 43.2629C504.944 41.7224 503.912 40.4529 502.496 39.4573C501.08 38.4616 499.382 37.9638 497.407 37.9638C495.886 37.9638 494.531 38.268 493.336 38.871C492.147 39.4683 491.196 40.2732 490.482 41.2826C489.774 42.2866 489.235 43.4039 488.867 44.6346C488.505 45.8598 488.325 47.1404 488.325 48.4734C488.325 49.8452 488.507 51.1506 488.878 52.3896C489.254 53.6231 489.807 54.7349 490.537 55.7306C491.273 56.7262 492.235 57.52 493.425 58.1091C494.611 58.6926 495.958 58.983 497.463 58.983Z" fill="#00D000"/>
</svg>
