<svg width="125" height="74" viewBox="0 0 125 74" fill="none" xmlns="http://www.w3.org/2000/svg">
<mask id="mask0_159_12241" style="mask-type:luminance" maskUnits="userSpaceOnUse" x="0" y="0" width="67" height="52">
<path d="M0 0.679932H66.4064V51.2213H0V0.679932Z" fill="white"/>
</mask>
<g mask="url(#mask0_159_12241)">
<mask id="mask1_159_12241" style="mask-type:luminance" maskUnits="userSpaceOnUse" x="-9" y="0" width="95" height="79">
<path d="M-8.59302 24.7741L68.0858 0.160278L85.3771 54.0296L8.69913 78.6434L-8.59302 24.7741Z" fill="white"/>
</mask>
<g mask="url(#mask1_159_12241)">
<mask id="mask2_159_12241" style="mask-type:luminance" maskUnits="userSpaceOnUse" x="-9" y="0" width="95" height="79">
<path d="M-8.59302 24.7741L68.0858 0.160278L85.3771 54.0296L8.69913 78.6434L-8.59302 24.7741Z" fill="white"/>
</mask>
<g mask="url(#mask2_159_12241)">
<path d="M28.022 13.0453C27.6351 13.1701 27.2535 13.2967 26.8773 13.426C26.5789 13.526 26.2815 13.6296 25.9884 13.7323C25.7936 13.8031 25.5989 13.874 25.4076 13.943C25.0562 14.0732 24.7082 14.2015 24.3709 14.3343C24.2107 14.3945 24.0513 14.4583 23.8911 14.522C23.7362 14.5849 23.5768 14.6477 23.421 14.7106C23.2882 14.7655 23.1589 14.8195 23.0261 14.8753C22.7632 14.9806 22.502 15.0931 22.2453 15.2055C21.6096 15.4799 20.9899 15.7632 20.3887 16.0519C20.2533 16.1121 20.1152 16.1776 19.9824 16.2457C19.8912 16.2874 19.8044 16.3316 19.715 16.3768C19.7008 16.3856 19.6823 16.3918 19.6681 16.4007C19.4361 16.5122 19.2113 16.6309 18.9837 16.7451C18.6792 16.9018 18.3782 17.0611 18.0798 17.224C17.8771 17.3347 17.6743 17.4462 17.476 17.5596C17.3273 17.641 17.1821 17.7251 17.0342 17.811C17.0307 17.8119 17.0307 17.8119 17.028 17.8172C16.7828 17.9535 16.5411 18.0987 16.303 18.2422C16.2454 18.2731 16.1932 18.3059 16.1374 18.3404C15.8957 18.4856 15.6593 18.6361 15.4265 18.7822C15.3185 18.8504 15.2105 18.9185 15.1042 18.9903C15.0963 18.9929 15.0936 18.9982 15.0865 19C14.8926 19.1257 14.6996 19.2541 14.5102 19.3816C14.4898 19.3966 14.4686 19.4072 14.4482 19.4223C14.4279 19.4373 14.4075 19.4524 14.388 19.4674C14.1499 19.6268 13.917 19.7853 13.6895 19.9508C13.4611 20.112 13.2397 20.2704 13.0202 20.4333C12.9122 20.5139 12.8086 20.5936 12.7041 20.6724C12.5023 20.8255 12.304 20.9769 12.111 21.131C12.0738 21.1593 12.041 21.1867 12.0083 21.2142C11.7781 21.3966 11.5559 21.5763 11.3345 21.7604C11.1336 21.9295 10.9326 22.0986 10.7369 22.2704C10.4979 22.4767 10.2651 22.6891 10.0358 22.9007C9.84099 23.076 9.65153 23.254 9.46738 23.4346C9.42223 23.478 9.37796 23.5222 9.33724 23.5647C8.90697 23.9826 8.49795 24.4022 8.10752 24.829C7.94374 25.0069 7.78261 25.184 7.62502 25.369C7.56216 25.4345 7.50462 25.5036 7.44353 25.5735C7.30985 25.7293 7.17528 25.8852 7.04602 26.0436C6.87692 26.2446 6.71225 26.4482 6.55201 26.6536C6.44488 26.7891 6.33864 26.9272 6.23683 27.0644C6.12971 27.1999 6.0279 27.3406 5.92608 27.4779C5.78886 27.6647 5.65606 27.8488 5.52857 28.0365C5.39489 28.2215 5.27094 28.4083 5.147 28.5942C5.02482 28.7757 4.90796 28.959 4.79198 29.1432C4.70168 29.2804 4.61757 29.4211 4.5317 29.5575C4.42015 29.7434 4.30771 29.9302 4.20059 30.1152C4.19528 30.125 4.18996 30.1347 4.18465 30.1453C4.08107 30.3162 3.98191 30.4906 3.88807 30.6668C3.78271 30.8598 3.67736 31.0528 3.57732 31.2476C3.50472 31.3883 3.43124 31.5247 3.3675 31.6619C3.36219 31.6725 3.35599 31.6787 3.35333 31.6831C3.28428 31.8221 3.21522 31.9576 3.15059 32.0957C3.08331 32.2382 3.01514 32.3772 2.95228 32.5189C2.885 32.6614 2.82214 32.8031 2.75839 32.9447C2.63179 33.228 2.51404 33.5122 2.39984 33.7964C2.3538 33.8991 2.31485 33.9992 2.27678 34.1036C2.26527 34.132 2.25464 34.1647 2.24314 34.1939C2.14664 34.4383 2.05279 34.6817 1.96869 34.9261C1.95009 34.9739 1.9315 35.0208 1.91734 35.0677C1.84651 35.2625 1.78011 35.4591 1.71725 35.6547C1.68715 35.7441 1.66148 35.8318 1.63403 35.9159C1.58445 36.0611 1.54107 36.201 1.50212 36.3382C1.4552 36.4789 1.41713 36.6206 1.37729 36.7596C1.27548 37.1058 1.18163 37.4537 1.10018 37.7972C1.06211 37.9397 1.03024 38.0752 1.00014 38.2142C0.95853 38.3744 0.925773 38.5311 0.89036 38.6931C0.86203 38.8029 0.842553 38.9092 0.818649 39.0172C0.816878 39.026 0.813337 39.0402 0.811566 39.049C0.771727 39.2367 0.735429 39.4244 0.703557 39.6103C0.692933 39.6555 0.684965 39.6962 0.676997 39.7361C0.635387 39.9583 0.597318 40.1796 0.563676 40.4C0.528263 40.6037 0.497276 40.8055 0.474258 41.0056C0.446813 41.1818 0.422024 41.3527 0.402547 41.5262C0.403432 41.5297 0.399891 41.5315 0.401661 41.535C0.375102 41.7148 0.357395 41.8918 0.338803 42.0698C0.336147 42.0875 0.336147 42.0999 0.333491 42.1176C0.309588 42.3168 0.28834 42.5124 0.275945 42.709C0.258239 42.8604 0.2485 43.0144 0.238762 43.164C0.218399 43.3632 0.206005 43.5589 0.194496 43.7554C0.182101 43.952 0.172363 44.1432 0.163509 44.338C0.152885 44.5381 0.146688 44.7408 0.144917 44.9426C0.137835 45.1162 0.133408 45.2853 0.133408 45.4561C0.131637 45.6704 0.131637 45.8793 0.133408 46.0918C0.133408 46.3007 0.132523 46.5061 0.139605 46.7133C0.144032 46.9081 0.146688 47.0993 0.157312 47.2888C0.164394 47.4534 0.170592 47.6154 0.179445 47.7748C0.200693 48.2706 0.23522 48.7566 0.278601 49.2285C0.29011 49.3834 0.306046 49.5366 0.321982 49.6906C0.366249 50.1537 0.417597 50.6008 0.478685 51.0372C1.63049 43.3446 7.00529 36.571 14.8997 34.0372L64.1034 18.243L66.3742 0.734863L28.022 13.0453ZM27.3474 25.5753L24.1779 26.5925L25.2129 16.7876L28.3823 15.7694L27.3474 25.5753Z" fill="#F1C30B"/>
</g>
</g>
</g>
<mask id="mask3_159_12241" style="mask-type:luminance" maskUnits="userSpaceOnUse" x="1" y="19" width="66" height="55">
<path d="M1.81348 19.7179H66.6334V73.6589H1.81348V19.7179Z" fill="white"/>
</mask>
<g mask="url(#mask3_159_12241)">
<mask id="mask4_159_12241" style="mask-type:luminance" maskUnits="userSpaceOnUse" x="-9" y="0" width="95" height="79">
<path d="M-8.59253 24.7739L68.0863 0.160156L85.3775 54.0295L8.69962 78.6433L-8.59253 24.7739Z" fill="white"/>
</mask>
<g mask="url(#mask4_159_12241)">
<mask id="mask5_159_12241" style="mask-type:luminance" maskUnits="userSpaceOnUse" x="-9" y="0" width="95" height="79">
<path d="M-8.59253 24.7739L68.0863 0.160156L85.3775 54.0295L8.69962 78.6433L-8.59253 24.7739Z" fill="white"/>
</mask>
<g mask="url(#mask5_159_12241)">
<path d="M2.40247 58.7767C2.51048 59.2185 2.63443 59.6558 2.77519 60.0958C2.87878 60.4181 2.98856 60.7341 3.1063 61.0475C6.7565 70.6993 17.3751 75.898 27.3128 72.7081C34.5929 70.3709 39.5533 64.1577 40.6387 57.076C40.6334 57.0733 40.637 57.0715 40.6396 57.0671C40.6777 56.4146 40.745 55.7657 40.8388 55.1212C40.8371 55.1132 40.8388 55.1079 40.8379 55.1044C42.4519 43.4951 51.3742 32.8685 64.3911 28.6898L66.6168 27.9754L64.037 19.9375L15.3866 35.5546C5.56662 38.7064 -0.0295135 48.9089 2.40247 58.7767ZM30.3477 51.2452C31.9422 56.2119 29.2092 61.5345 24.2381 63.1307C19.2679 64.7261 13.9436 61.9895 12.3491 57.0229C10.7537 52.0518 13.4903 46.7274 18.4605 45.1321C23.4316 43.5358 28.7524 46.2741 30.3477 51.2452Z" fill="#F1C30B"/>
</g>
</g>
</g>
<mask id="mask6_159_12241" style="mask-type:luminance" maskUnits="userSpaceOnUse" x="65" y="0" width="6" height="28">
<path d="M65.5 0H70.7128V27.6504H65.5V0Z" fill="white"/>
</mask>
<g mask="url(#mask6_159_12241)">
<mask id="mask7_159_12241" style="mask-type:luminance" maskUnits="userSpaceOnUse" x="-9" y="0" width="95" height="79">
<path d="M-8.59277 24.7741L68.086 0.160278L85.3773 54.0296L8.69938 78.6434L-8.59277 24.7741Z" fill="white"/>
</mask>
<g mask="url(#mask7_159_12241)">
<mask id="mask8_159_12241" style="mask-type:luminance" maskUnits="userSpaceOnUse" x="-9" y="0" width="95" height="79">
<path d="M-8.59277 24.7741L68.086 0.160278L85.3773 54.0296L8.69938 78.6434L-8.59277 24.7741Z" fill="white"/>
</mask>
<g mask="url(#mask8_159_12241)">
<path d="M65.7787 17.7056L65.553 19.4506L66.649 22.867L68.1328 27.4884L68.6135 23.7754L70.6294 8.23085L68.0505 0.196533L65.7787 17.7056Z" fill="#F1C30B"/>
</g>
</g>
</g>
<mask id="mask9_159_12241" style="mask-type:luminance" maskUnits="userSpaceOnUse" x="46" y="23" width="79" height="39">
<path d="M124.427 23.7975H46.4619V61.4202H124.427V23.7975Z" fill="white"/>
</mask>
<g mask="url(#mask9_159_12241)">
<path d="M52.8945 35.0352H58.8297L64.9916 54.3883H59.6017L58.4296 50.5956H53.2664L52.1225 54.3883H46.7043L52.8945 35.0352ZM57.5761 47.0543L55.8621 40.2409L54.0632 47.0543H57.5761Z" fill="#183EFF"/>
<path d="M66.5996 54.3883V35.0352H74.9429C75.8566 35.0352 76.7251 35.2317 77.5493 35.623C78.3753 36.0126 79.0685 36.5225 79.628 37.1529C80.1876 37.7832 80.6311 38.5003 80.9596 39.3024C81.2871 40.1054 81.4518 40.9199 81.4518 41.7459C81.4518 42.6056 81.296 43.4387 80.9844 44.2461C80.6745 45.0535 80.2478 45.7679 79.7024 46.3886C79.157 47.0101 78.4807 47.5094 77.6732 47.8865C76.8658 48.2646 76 48.4531 75.0775 48.4531H71.908V54.3883H66.5996ZM71.908 43.8069H74.7163C75.089 43.8069 75.4068 43.6432 75.6689 43.3147C75.9309 42.9871 76.062 42.4639 76.062 41.7459C76.062 41.0164 75.9132 40.4879 75.6158 40.1594C75.3183 39.8318 74.9748 39.6672 74.5852 39.6672H71.908V43.8069Z" fill="#183EFF"/>
<path d="M83.5662 54.3883V35.0352H88.8746V54.3883H83.5662Z" fill="#183EFF"/>
<path d="M107.267 39.6672H101.718V54.3883H96.3957V39.6672H90.804V35.0352H107.267V39.6672Z" fill="#183EFF"/>
<path d="M111.899 35.0352H117.834L123.996 54.3883H118.606L117.434 50.5956H112.271L111.127 54.3883H105.708L111.899 35.0352ZM116.58 47.0543L114.866 40.2409L113.067 47.0543H116.58Z" fill="#183EFF"/>
</g>
<path d="M52.2329 59.373C53.4316 59.373 54.4905 59.6245 55.4095 60.1273C56.3302 60.6302 57.0154 61.3066 57.4669 62.1565L54.7862 64.0617C54.6702 63.7643 54.5117 63.5093 54.3116 63.2968C54.1133 63.0826 53.8911 62.9179 53.6459 62.8046C53.3998 62.6895 53.1554 62.6063 52.9128 62.5567C52.6694 62.5071 52.4188 62.4823 52.1621 62.4823C51.6805 62.4823 51.2493 62.5806 50.8695 62.7762C50.4888 62.9728 50.186 63.2331 49.9594 63.5589C49.7345 63.8829 49.5637 64.2379 49.4459 64.6248C49.3299 65.0126 49.2724 65.4136 49.2724 65.8288C49.2724 66.7593 49.538 67.5561 50.0692 68.2192C50.6021 68.8805 51.3122 69.2108 52.1975 69.2108C52.5419 69.2108 52.8721 69.163 53.1891 69.0656C53.5051 68.9691 53.807 68.7991 54.0956 68.5556C54.386 68.3131 54.5994 68.0094 54.7366 67.6455L57.598 69.3489C57.3572 69.9536 56.9366 70.4874 56.3373 70.9495C55.737 71.4126 55.0713 71.757 54.34 71.9836C53.6078 72.2085 52.8703 72.32 52.1267 72.32C51.213 72.32 50.3498 72.1306 49.538 71.7499C48.7279 71.3674 48.0453 70.8681 47.4911 70.2519C46.9387 69.634 46.5031 68.9275 46.1844 68.1342C45.8657 67.341 45.7063 66.5371 45.7063 65.7226C45.7063 64.9391 45.8559 64.1706 46.156 63.4172C46.4579 62.6647 46.8794 61.9865 47.4203 61.3845C47.963 60.7807 48.6527 60.2938 49.4884 59.9255C50.3259 59.5572 51.2413 59.373 52.2329 59.373Z" fill="#00D000"/>
<path d="M58.8357 72.2139V59.4404H62.3416V72.2139H58.8357Z" fill="#00D000"/>
<path d="M64.5361 72.2139V59.4404H69.4479C70.4767 59.4404 71.4062 59.6069 72.2349 59.9398C73.0636 60.2709 73.74 60.7277 74.2641 61.3102C74.7882 61.891 75.1892 62.5639 75.4681 63.3288C75.7461 64.0937 75.886 64.9215 75.886 65.8112C75.886 67.743 75.2981 69.2923 74.1224 70.4609C72.9485 71.6296 71.3903 72.2139 69.4479 72.2139H64.5361ZM69.4479 62.5001H68.042V69.1577H69.4479C70.3421 69.1577 71.0459 68.8479 71.5585 68.2264C72.0702 67.6058 72.327 66.801 72.327 65.8112C72.327 64.8108 72.0694 64.0087 71.555 63.4067C71.0397 62.8029 70.3377 62.5001 69.4479 62.5001Z" fill="#00D000"/>
<path d="M79.8439 59.4404H83.7641L87.8295 72.2139H84.274L83.4985 69.7102H80.0917L79.3375 72.2139H75.7607L79.8439 59.4404ZM82.939 67.3729L81.8057 62.8755L80.6194 67.3729H82.939Z" fill="#00D000"/>
<path d="M88.8918 72.2139V59.4404H93.8036C94.8324 59.4404 95.762 59.6069 96.5906 59.9398C97.4193 60.2709 98.0957 60.7277 98.6198 61.3102C99.1439 61.891 99.545 62.5639 99.8238 63.3288C100.102 64.0937 100.242 64.9215 100.242 65.8112C100.242 67.743 99.6538 69.2923 98.4781 70.4609C97.3042 71.6296 95.746 72.2139 93.8036 72.2139H88.8918ZM93.8036 62.5001H92.3977V69.1577H93.8036C94.6978 69.1577 95.4016 68.8479 95.9142 68.2264C96.426 67.6058 96.6827 66.801 96.6827 65.8112C96.6827 64.8108 96.4251 64.0087 95.9107 63.4067C95.3954 62.8029 94.6934 62.5001 93.8036 62.5001Z" fill="#00D000"/>
<path d="M104.993 57.7477C104.839 57.7477 104.707 57.7778 104.596 57.8362C104.485 57.8928 104.402 57.9601 104.348 58.038C104.296 58.1142 104.256 58.2001 104.228 58.2966C104.2 58.3939 104.182 58.4648 104.175 58.509C104.169 58.5515 104.168 58.5869 104.168 58.6153H102.347C102.347 58.4763 102.374 58.2966 102.429 58.077C102.486 57.8574 102.579 57.6131 102.712 57.3439C102.844 57.073 103.003 56.8225 103.187 56.5932C103.371 56.3621 103.609 56.1673 103.902 56.0089C104.194 55.8513 104.511 55.7716 104.851 55.7716C105.115 55.7716 105.366 55.8203 105.605 55.9168C105.846 56.0115 106.042 56.1169 106.193 56.232C106.346 56.3453 106.52 56.4507 106.714 56.5472C106.907 56.6445 107.095 56.6923 107.277 56.6923C107.423 56.6923 107.554 56.6622 107.67 56.6003C107.788 56.5392 107.876 56.4675 107.936 56.3843C107.994 56.3019 108.043 56.2134 108.081 56.1187C108.118 56.0222 108.143 55.9451 108.155 55.8885C108.167 55.8318 108.173 55.7929 108.173 55.7716H109.972C109.972 55.8708 109.942 56.023 109.883 56.2284C109.827 56.4321 109.729 56.6729 109.593 56.9509C109.458 57.2297 109.297 57.4909 109.111 57.7335C108.925 57.9769 108.679 58.185 108.375 58.3568C108.07 58.5294 107.744 58.6153 107.397 58.6153C107.151 58.6153 106.91 58.571 106.671 58.4807C106.435 58.3886 106.239 58.2895 106.084 58.1832C105.929 58.0752 105.752 57.9761 105.552 57.8858C105.354 57.7937 105.167 57.7477 104.993 57.7477ZM104.2 59.4404H108.12L112.185 72.2139H108.63L107.854 69.7102H104.447L103.693 72.2139H100.116L104.2 59.4404ZM107.295 67.3729L106.161 62.8754L104.975 67.3729H107.295Z" fill="#00D000"/>
<path d="M112.028 65.8111C112.028 64.9736 112.191 64.1635 112.517 63.3818C112.845 62.6009 113.293 61.9148 113.863 61.3243C114.431 60.732 115.124 60.2584 115.941 59.9042C116.758 59.5501 117.629 59.373 118.555 59.373C119.49 59.373 120.366 59.5599 121.186 59.9326C122.008 60.3035 122.692 60.7949 123.24 61.4058C123.787 62.0175 124.217 62.7125 124.529 63.4916C124.843 64.2707 125 65.0675 125 65.882C125 66.7133 124.837 67.518 124.511 68.2971C124.187 69.0762 123.743 69.7632 123.176 70.3582C122.611 70.9513 121.92 71.4267 121.101 71.7853C120.281 72.1421 119.409 72.32 118.484 72.32C117.547 72.32 116.669 72.1359 115.853 71.7676C115.036 71.3975 114.352 70.9071 113.803 70.2979C113.252 69.6888 112.819 68.9939 112.503 68.2121C112.186 67.4313 112.028 66.6309 112.028 65.8111ZM118.52 69.2108C119.006 69.2108 119.44 69.1134 119.823 68.9168C120.207 68.7185 120.513 68.4565 120.74 68.1307C120.968 67.8031 121.141 67.4428 121.257 67.0506C121.375 66.6566 121.434 66.2432 121.434 65.8111C121.434 65.2144 121.33 64.6699 121.122 64.1786C120.914 63.6855 120.584 63.2791 120.131 62.9604C119.678 62.6417 119.134 62.4823 118.502 62.4823C118.015 62.4823 117.581 62.5797 117.199 62.7727C116.818 62.9639 116.513 63.2216 116.285 63.5447C116.058 63.8661 115.886 64.2237 115.768 64.6177C115.652 65.0099 115.594 65.4198 115.594 65.8465C115.594 66.2857 115.653 66.7035 115.771 67.1002C115.892 67.495 116.069 67.8509 116.303 68.1696C116.538 68.4883 116.846 68.7424 117.227 68.931C117.607 69.1178 118.038 69.2108 118.52 69.2108Z" fill="#00D000"/>
</svg>
